<svg preserveAspectRatio="none" width="100%" height="100%" overflow="visible" style="display: block;" viewBox="0 0 73.3333 53.3333" fill="none" xmlns="http://www.w3.org/2000/svg">
<g id="22-22-preferences-system-bluetooth-activated">
<path id="path4676" d="M36.6602 0V23.47L25.6836 12.4935L25.6769 12.5C24.4911 11.3135 22.3568 9.17969 22.3568 9.17969L20 11.5365L35.1497 26.6732L20 41.8099L22.3568 44.1667C22.3568 44.1667 24.4913 42.033 25.6771 40.8464H25.6837L36.6667 29.8698V53.3333H40L53.3333 40L40 26.6667L53.3333 13.3333L40 0H36.6602ZM40 4.72005L48.6198 13.3398L40 21.9596V4.72005ZM3.33333 23.3333C2.44928 23.3333 1.60143 23.6845 0.976308 24.3096C0.351187 24.9348 0 25.7826 0 26.6667C0 27.5507 0.351187 28.3986 0.976308 29.0237C1.60143 29.6488 2.44928 30 3.33333 30C4.21739 30 5.06524 29.6488 5.69036 29.0237C6.31548 28.3986 6.66667 27.5507 6.66667 26.6667C6.66667 25.7826 6.31548 24.9348 5.69036 24.3096C5.06524 23.6845 4.21739 23.3333 3.33333 23.3333ZM16.6667 23.3333C15.7826 23.3333 14.9348 23.6845 14.3096 24.3096C13.6845 24.9348 13.3333 25.7826 13.3333 26.6667C13.3333 27.5507 13.6845 28.3986 14.3096 29.0237C14.9348 29.6488 15.7826 30 16.6667 30C17.5507 30 18.3986 29.6488 19.0237 29.0237C19.6488 28.3986 20 27.5507 20 26.6667C20 25.7826 19.6488 24.9348 19.0237 24.3096C18.3986 23.6845 17.5507 23.3333 16.6667 23.3333ZM56.6667 23.3333C55.7826 23.3333 54.9348 23.6845 54.3096 24.3096C53.6845 24.9348 53.3333 25.7826 53.3333 26.6667C53.3333 27.5507 53.6845 28.3986 54.3096 29.0237C54.9348 29.6488 55.7826 30 56.6667 30C57.5507 30 58.3986 29.6488 59.0237 29.0237C59.6488 28.3986 60 27.5507 60 26.6667C60 25.7826 59.6488 24.9348 59.0237 24.3096C58.3986 23.6845 57.5507 23.3333 56.6667 23.3333ZM70 23.3333C69.1159 23.3333 68.2681 23.6845 67.643 24.3096C67.0179 24.9348 66.6667 25.7826 66.6667 26.6667C66.6667 27.5507 67.0179 28.3986 67.643 29.0237C68.2681 29.6488 69.1159 30 70 30C70.8841 30 71.7319 29.6488 72.357 29.0237C72.9821 28.3986 73.3333 27.5507 73.3333 26.6667C73.3333 25.7826 72.9821 24.9348 72.357 24.3096C71.7319 23.6845 70.8841 23.3333 70 23.3333ZM40 31.3867L48.6198 40.0065L40 48.6263V31.3867Z" fill="var(--fill-0, #BDA7F0)"/>
</g>
</svg>
