<svg preserveAspectRatio="none" width="100%" height="100%" overflow="visible" style="display: block;" viewBox="0 0 67.0163 66.6667" fill="none" xmlns="http://www.w3.org/2000/svg">
<path id="Vector" d="M64.6352 7.04902L50.849 0.416683C49.2449 -0.358171 47.3371 -0.0314759 46.0826 1.22295L19.6769 25.3167L8.16922 16.5902C7.10118 15.7714 5.59545 15.8384 4.6028 16.7431L0.917002 20.1022C-0.303917 21.2037 -0.303917 23.1241 0.906531 24.2257L10.8875 33.3333L0.906531 42.441C-0.303917 43.5426 -0.303917 45.4629 0.917002 46.5645L4.6028 49.9236C5.60592 50.8283 7.10118 50.8953 8.16922 50.0765L19.6769 41.3395L46.0952 65.4437C47.3391 66.6981 49.247 67.0248 50.8511 66.25L64.6498 59.6072C66.1011 58.9098 67.0163 57.4481 67.0163 55.8334V10.8186C67.0163 9.21442 66.0885 7.7422 64.6393 7.04483L64.6352 7.04902ZM50.2689 48.5519L30.2212 33.3354L50.2689 18.119V48.5519Z" fill="var(--fill-0, #BDA7F0)"/>
</svg>
