<svg preserveAspectRatio="none" width="100%" height="100%" overflow="visible" style="display: block;" viewBox="0 0 51.6897 66.6667" fill="none" xmlns="http://www.w3.org/2000/svg">
<g id="Group 1">
<path id="Vector" d="M8.32813 28.657C11.1974 30.6565 14.5129 33.667 16.3545 38.1872L16.3564 38.1911C18.5081 43.3848 18.7461 50.7679 13.793 61.1657C13.6537 61.0597 13.519 60.9465 13.3955 60.823L1.80566 48.8991L1.80371 48.8972L1.61719 48.6921C1.20062 48.1975 0.920202 47.6006 0.806641 46.9607C0.676904 46.2294 0.770695 45.4755 1.07617 44.7986L1.07715 44.7976L8.3252 28.6618L8.32617 28.6628C8.32703 28.661 8.32727 28.6588 8.32813 28.657Z" fill="var(--fill-0, #BDA7F0)" stroke="var(--stroke-0, black)" stroke-width="1.5"/>
<path id="Vector_2" d="M42.2005 16.794C42.7415 17.48 43.0267 18.3481 43.0267 19.2412V19.2451C43.0348 20.6439 43.0945 22.7928 43.347 25.0596C43.5983 27.3148 44.0454 29.7404 44.85 31.668L44.8617 31.6953C46.4205 35.0534 48.3557 38.2236 50.6293 41.1455C50.8108 41.3793 50.9181 41.6626 50.9369 41.958C50.9556 42.2524 50.8851 42.5455 50.7357 42.7998C48.8833 45.9121 46.9443 48.9721 44.9203 51.9756L44.9183 51.9785C44.9082 51.9937 44.8981 52.0092 44.888 52.0244C41.6201 45.5248 37.6855 41.9733 33.3011 40.333L33.2943 40.3311L32.7464 40.1416C31.6095 39.7679 30.4607 39.5141 29.2933 39.3701C26.8916 33.2079 26.1753 28.6191 26.3255 24.9824C26.4809 21.8721 27.3097 18.8323 28.7543 16.0733L28.7611 16.0606L28.7679 16.0469C29.064 15.4237 29.3769 14.8131 29.6927 14.2129L29.6937 14.211C30.6247 12.4279 31.5593 10.6475 32.0619 8.67092C32.4064 7.34325 32.5539 5.93649 32.4115 4.37209L42.2005 16.794Z" fill="var(--fill-0, #BDA7F0)" stroke="var(--stroke-0, black)" stroke-width="1.5"/>
<path id="Vector_3" d="M27.9575 0.754883C28.8815 0.801789 29.7523 1.19306 30.4008 1.84766C31.0705 3.93521 31.1443 6.16884 30.6088 8.29688C30.2572 9.63552 29.7001 10.8872 29.0512 12.1934L28.3764 13.5225L27.4223 15.3838L27.4184 15.3906L27.4155 15.3975C26.151 17.9912 24.9917 20.9606 24.8266 24.9219C24.6715 28.6761 25.383 33.2709 27.6352 39.2432C24.5985 39.1437 21.5622 39.4695 18.6147 40.2119C18.3743 39.2935 18.0796 38.4315 17.7436 37.6045L17.7426 37.6016L17.5307 37.1064C15.3888 32.2746 11.7255 29.1339 8.74458 27.1377L10.393 16.2197L10.392 16.2188C10.5233 15.3722 10.9451 14.5977 11.5834 14.0264L11.5844 14.0254L25.2963 1.69531L25.2973 1.69629C26.0251 1.0438 26.9812 0.705409 27.9575 0.754883Z" fill="var(--fill-0, #BDA7F0)" stroke="var(--stroke-0, black)" stroke-width="1.5"/>
<path id="Vector_4" d="M18.9436 41.6959C23.8395 40.5687 28.5185 40.1452 32.7902 41.7379C36.8977 43.2803 40.7392 46.7441 43.9904 53.5796C42.7137 56.1564 41.8877 58.9337 41.552 61.7916C41.1871 64.4857 38.5865 66.4487 36.1496 65.7828C35.2077 65.5187 34.1496 65.1993 33.0236 64.8609C31.9007 64.5234 30.713 64.1688 29.5246 63.8384C27.1604 63.1812 24.7404 62.6056 22.7668 62.4644H22.7678L15.7844 61.94H15.7834C15.568 61.9211 15.3564 61.8837 15.1525 61.8316C19.1215 53.5116 19.9044 46.9105 18.9436 41.6959Z" fill="var(--fill-0, #BDA7F0)" stroke="var(--stroke-0, black)" stroke-width="1.5"/>
</g>
</svg>
