<svg preserveAspectRatio="none" width="100%" height="100%" overflow="visible" style="display: block;" viewBox="0 0 66.6667 66.6667" fill="none" xmlns="http://www.w3.org/2000/svg">
<g id="Group">
<path id="Vector" d="M35.4167 0C30.3589 0 26.1707 3.56637 25.2116 8.33333H0V12.5H25.2116C26.1707 17.267 30.3589 20.8333 35.4167 20.8333C40.4744 20.8333 44.6626 17.267 45.6217 12.5H66.6667V8.33333H45.6217C44.6626 3.56637 40.4744 0 35.4167 0ZM10.4167 45.8333C4.64583 45.8333 0 50.4792 0 56.25C0 62.0208 4.64583 66.6667 10.4167 66.6667C15.4744 66.6667 19.6626 63.1003 20.6217 58.3333H66.6667V54.1667H20.6217C19.6626 49.3997 15.4744 45.8333 10.4167 45.8333ZM10.4167 50C13.8792 50 16.6667 52.7875 16.6667 56.25C16.6667 59.7125 13.8792 62.5 10.4167 62.5C6.95417 62.5 4.16667 59.7125 4.16667 56.25C4.16667 52.7875 6.95417 50 10.4167 50Z" fill="var(--fill-0, #BDA7F0)"/>
</g>
</svg>
