<svg xmlns="http://www.w3.org/2000/svg" width="100%" height="100%" viewBox="0 0 128 128" fill="none" preserveAspectRatio="xMidYMid meet">
  <g stroke="var(--fill-0, #BDA7F0)" stroke-width="5.5" stroke-linecap="round" stroke-linejoin="round">
    <!-- Circuit board / chip -->
    <rect x="32" y="32" width="64" height="64" rx="6"/>
    <!-- Chip pins -->
    <line x1="48" y1="32" x2="48" y2="18"/>
    <line x1="64" y1="32" x2="64" y2="18"/>
    <line x1="80" y1="32" x2="80" y2="18"/>
    <line x1="48" y1="96" x2="48" y2="110"/>
    <line x1="64" y1="96" x2="64" y2="110"/>
    <line x1="80" y1="96" x2="80" y2="110"/>
    <line x1="32" y1="48" x2="18" y2="48"/>
    <line x1="32" y1="64" x2="18" y2="64"/>
    <line x1="32" y1="80" x2="18" y2="80"/>
    <line x1="96" y1="48" x2="110" y2="48"/>
    <line x1="96" y1="64" x2="110" y2="64"/>
    <line x1="96" y1="80" x2="110" y2="80"/>
    <!-- Upload arrow -->
    <line x1="64" y1="76" x2="64" y2="52"/>
    <path d="M52 60 L64 48 L76 60"/>
  </g>
</svg>
