<svg preserveAspectRatio="none" width="100%" height="100%" overflow="visible" style="display: block;" viewBox="0 0 66.6667 66.6667" fill="none" xmlns="http://www.w3.org/2000/svg">
<g id="Group">
<path id="Vector" d="M31.25 0C30.7008 0.00868481 30.1773 0.233894 29.7933 0.626628C29.4125 1.01592 29.1994 1.5388 29.1994 2.08333C29.1994 2.62786 29.4125 3.15075 29.7933 3.54004L47.5016 21.2484C46.2646 21.0071 45.0098 20.8683 43.75 20.8333H2.08333C1.5308 20.8333 1.0009 21.0528 0.610195 21.4435C0.219494 21.8342 0 22.3641 0 22.9167C0 23.4692 0.219494 23.9991 0.610195 24.3898C1.0009 24.7805 1.5308 25 2.08333 25H30.599C28.7089 26.3374 27.0324 27.9535 25.6266 29.7933L0.626628 54.7933C0.245883 55.1826 0.0326872 55.7055 0.0326872 56.25C0.0326872 56.7945 0.245883 57.3174 0.626628 57.7067C1.01592 58.0874 1.5388 58.3006 2.08333 58.3006C2.62786 58.3006 3.15075 58.0874 3.54004 57.7067L21.2484 40.1693C21.0162 41.3501 20.8774 42.5474 20.8333 43.75C20.8333 49.8279 23.2478 55.6568 27.5455 59.9545C31.8432 64.2522 37.6721 66.6667 43.75 66.6667C49.8279 66.6667 55.6568 64.2522 59.9545 59.9545C64.2522 55.6568 66.6667 49.8279 66.6667 43.75C66.66 40.2348 65.8447 36.7683 64.284 33.6186C62.7233 30.4689 60.4589 27.7205 57.666 25.5859L32.7067 0.626628C32.3227 0.233894 31.7992 0.00868481 31.25 0ZM43.75 25C48.7228 25 53.4919 26.9754 57.0082 30.4917C60.5246 34.0081 62.5 38.7772 62.5 43.75C62.5 48.7228 60.5246 53.4919 57.0082 57.0082C53.4919 60.5246 48.7228 62.5 43.75 62.5C38.7772 62.5 34.0081 60.5246 30.4917 57.0082C26.9754 53.4919 25 48.7228 25 43.75C25 38.7772 26.9754 34.0081 30.4917 30.4917C34.0081 26.9754 38.7772 25 43.75 25ZM43.75 37.5C42.0924 37.5 40.5027 38.1585 39.3306 39.3306C38.1585 40.5027 37.5 42.0924 37.5 43.75C37.5 45.4076 38.1585 46.9973 39.3306 48.1694C40.5027 49.3415 42.0924 50 43.75 50C45.4076 50 46.9973 49.3415 48.1694 48.1694C49.3415 46.9973 50 45.4076 50 43.75C50 42.0924 49.3415 40.5027 48.1694 39.3306C46.9973 38.1585 45.4076 37.5 43.75 37.5Z" fill="var(--fill-0, #BDA7F0)"/>
</g>
</svg>
