<svg preserveAspectRatio="none" width="100%" height="100%" overflow="visible" style="display: block;" viewBox="0 0 15.4849 16" fill="none" xmlns="http://www.w3.org/2000/svg">
<path id="Vector" d="M5.62383 4.85786C5.62939 4.85786 5.62636 4.85786 5.62383 4.85786ZM3.75663 3.92426C3.76218 3.92426 3.75915 3.92426 3.75663 3.92426ZM14.9255 5.36531C14.5887 4.55542 13.9051 3.6824 13.3709 3.40369C13.8076 4.25802 14.0601 5.1184 14.1545 5.75713L14.157 5.77076C13.279 3.58495 11.7935 2.70437 10.5781 0.78667C10.5175 0.689725 10.457 0.592275 10.3964 0.489775C10.3646 0.437263 10.3383 0.384751 10.3095 0.328705C10.2595 0.23176 10.2232 0.12926 10.1964 0.0212068C10.1964 0.0111083 10.1888 0.00302954 10.1782 0.000504924C10.1727 0.000504924 10.1676 0.000504924 10.1626 0.000504924L10.1601 0.00302954C10.1575 0.00302954 10.1545 0.00555415 10.1545 0.00555415C10.1545 0.00555415 10.1545 0.00302954 10.157 0C8.43171 1.00985 7.71926 2.7796 7.53497 3.90255C7.00126 3.93436 6.48069 4.06816 5.99949 4.29437C5.90709 4.34133 5.86569 4.44736 5.90003 4.54128C5.9389 4.64883 6.06009 4.70235 6.16511 4.65438C6.58571 4.45696 7.03812 4.3388 7.50366 4.3075L7.5486 4.30194C7.61171 4.29942 7.67735 4.29639 7.74047 4.29639C8.11664 4.29386 8.4923 4.34638 8.85281 4.4514L8.91593 4.47008C8.97652 4.48826 9.03459 4.50896 9.09518 4.53067C9.13709 4.54633 9.18202 4.56248 9.22393 4.58066C9.25827 4.59328 9.2926 4.60944 9.32643 4.62257C9.37945 4.64681 9.43196 4.67306 9.48447 4.69932L9.55516 4.73315C9.60767 4.75991 9.65817 4.78818 9.70815 4.81747C9.73996 4.83615 9.77127 4.85433 9.80257 4.87554C10.3635 5.22292 10.8311 5.70412 11.1573 6.2772C10.7448 5.98839 10.0025 5.69907 9.29058 5.8253C12.0778 7.21888 11.3285 12.0182 7.46529 11.8364C7.12042 11.8238 6.78112 11.7576 6.45796 11.642C6.3792 11.6132 6.30245 11.5814 6.22923 11.5496C6.1848 11.5289 6.13986 11.5077 6.09796 11.487C5.15072 10.9977 4.3696 10.0717 4.27266 8.94875C4.27266 8.94875 4.63014 7.61575 6.83363 7.61575C7.07347 7.61575 7.75461 6.94976 7.76723 6.75789C7.76168 6.69477 6.41252 6.15855 5.8869 5.64049C5.60566 5.3643 5.47438 5.2305 5.35572 5.13002C5.2926 5.07498 5.22444 5.02499 5.15324 4.97804C4.97753 4.36001 4.96945 3.70512 5.13254 3.08407C4.33527 3.44711 3.71724 4.0207 3.26786 4.52562H3.26332C2.95582 4.13633 2.97905 2.85281 2.9947 2.5847C2.99217 2.56652 2.76597 2.70033 2.73668 2.72153C2.46604 2.91593 2.21106 3.13204 1.9793 3.37137C1.71421 3.63948 1.47236 3.92881 1.25372 4.23933C0.756879 4.94421 0.401919 5.7435 0.215097 6.5847C0.212573 6.5953 0.141883 6.91139 0.0893714 7.30018C0.078768 7.36077 0.0706892 7.42136 0.0631154 7.48144C0.0414037 7.62888 0.026256 7.77884 0.0181772 7.92628L0.0156526 7.95001C0.0111083 8.03686 0.00555415 8.12118 0 8.20803V8.24691C0 12.5287 3.47135 16 7.75309 16C11.587 16 14.7715 13.2148 15.3951 9.5592C15.4087 9.45973 15.4188 9.35976 15.4294 9.25978C15.5844 7.93133 15.4138 6.53269 14.927 5.36531H14.9255Z" fill="var(--fill-0, #BDA7F0)"/>
</svg>
