<svg xmlns="http://www.w3.org/2000/svg" width="150" height="150" viewBox="0 0 150 150">
  <path fill-rule="evenodd" fill="#BDA7F0" d="M65 55L85 55L85 25A10 10 0 0 1 95 15L125 15A10 10 0 0 1 135 25L135 55A10 10 0 0 1 125 65L95 65L95 85L125 85A10 10 0 0 1 135 95L135 125A10 10 0 0 1 125 135L95 135A10 10 0 0 1 85 125L85 95L65 95L65 125A10 10 0 0 1 55 135L25 135A10 10 0 0 1 15 125L15 95A10 10 0 0 1 25 85L55 85L55 65L25 65A10 10 0 0 1 15 55L15 25A10 10 0 0 1 25 15L55 15A10 10 0 0 1 65 25ZM65 65L85 65L85 85L65 85ZM25 25L55 25L55 55L25 55ZM95 25L125 25L125 55L95 55ZM25 95L55 95L55 125L25 125ZM95 95L125 95L125 125L95 125Z"/>
</svg>
