<svg preserveAspectRatio="none" width="100%" height="100%" overflow="visible" style="display: block;" viewBox="0 0 53.3333 53.3333" fill="none" xmlns="http://www.w3.org/2000/svg">
<g id="Group">
<path id="Vector" d="M37.7474 14.2708L35.9505 17.1419C37.2263 18.3795 38.2417 19.8596 38.9371 21.4953C39.6326 23.131 39.9939 24.8893 40 26.6667C39.9974 28.4453 39.6389 30.2055 38.9457 31.8435C38.2524 33.4815 37.2385 34.9642 35.9635 36.2044L37.7604 39.082C39.5105 37.5211 40.9115 35.6085 41.8718 33.4691C42.8321 31.3297 43.3301 29.0117 43.3333 26.6667C43.3257 24.3239 42.8244 22.0091 41.8619 19.8732C40.8994 17.7374 39.4974 15.8284 37.7474 14.2708Z" fill="var(--fill-0, #BDA7F0)"/>
<path id="Vector_2" d="M36.2174 1.79036L35.4036 5.04557C39.7133 6.7859 43.405 9.77362 46.0056 13.6258C48.6062 17.4779 49.9971 22.0189 50 26.6667C49.9914 31.3108 48.5971 35.8466 45.9956 39.6937C43.3942 43.5408 39.7039 46.5241 35.3971 48.2617L36.2109 51.5104C41.2399 49.5828 45.5674 46.1776 48.6237 41.7431C51.68 37.3085 53.3219 32.0524 53.3333 26.6667C53.329 21.2761 51.6911 16.0135 48.6356 11.5725C45.5801 7.13163 41.2504 3.72101 36.2174 1.79036Z" fill="var(--fill-0, #BDA7F0)"/>
<path id="Vector_3" fill-rule="evenodd" clip-rule="evenodd" d="M0 16.6667H6.66667V36.6667H0V16.6667Z" fill="var(--fill-0, #BDA7F0)"/>
<path id="Vector_4" d="M10 36.6667L26.6667 53.3333H30V3.17891e-07H26.6667L10 16.6667V36.6667Z" fill="var(--fill-0, #BDA7F0)"/>
</g>
</svg>
