<svg preserveAspectRatio="none" width="100%" height="100%" overflow="visible" style="display: block;" viewBox="0 0 70.7812 53.3333" fill="none" xmlns="http://www.w3.org/2000/svg">
<g id="Group">
<path id="rect4152-67" d="M35.3906 0C21.5406 0 9.03751 5.57171 0 14.6094L2.36328 16.9727C10.7983 8.53766 22.464 3.33333 35.3906 3.33333C48.3173 3.33333 59.983 8.53766 68.418 16.9727L70.7812 14.6094C61.7437 5.57171 49.2406 0 35.3906 0ZM35.3906 13.3333C25.234 13.3333 16.0676 17.4218 9.4401 24.0495L11.7969 26.4062C17.8219 20.3812 26.1573 16.6667 35.3906 16.6667C44.624 16.6667 52.9593 20.3812 58.9844 26.4062L61.3411 24.0495C54.7137 17.4218 45.5473 13.3333 35.3906 13.3333ZM35.3906 26.6667C28.9273 26.6667 23.0912 29.2657 18.8737 33.4831L21.237 35.8464C24.852 32.2314 29.8506 30 35.3906 30C40.9306 30 45.9293 32.2314 49.5443 35.8464L51.9076 33.4831C47.6901 29.2657 41.854 26.6667 35.3906 26.6667ZM35.3906 40C31.6973 40 28.724 42.9733 28.724 46.6667C28.724 50.36 31.6973 53.3333 35.3906 53.3333C39.084 53.3333 42.0573 50.36 42.0573 46.6667C42.0573 42.9733 39.084 40 35.3906 40ZM35.3906 43.3333C37.2373 43.3333 38.724 44.82 38.724 46.6667C38.724 48.5133 37.2373 50 35.3906 50C33.544 50 32.0573 48.5133 32.0573 46.6667C32.0573 44.82 33.544 43.3333 35.3906 43.3333Z" fill="var(--fill-0, #BDA7F0)"/>
</g>
</svg>
